HIERARCHY
ROOT hip
{
  OFFSET 0 0 0
  CHANNELS 6 Xposition Yposition Zposition Zrotation Yrotation Xrotation
  JOINT abdomen
  {
    OFFSET 0 20.6881 -0.73152
    CHANNELS 3 Zrotation Xrotation Yrotation
    JOINT chest
    {
      OFFSET 0 11.7043 -0.48768
      CHANNELS 3 Zrotation Xrotation Yrotation
      JOINT neck
      {
        OFFSET 0 22.1894 -2.19456
        CHANNELS 3 Zrotation Xrotation Yrotation
        JOINT head
        {
          OFFSET -0.24384 7.07133 1.2192
          CHANNELS 3 Zrotation Xrotation Yrotation
          JOINT leftEye
          {
            OFFSET 4.14528 8.04674 8.04672
            CHANNELS 3 Zrotation Xrotation Yrotation
            End Site
            {
              OFFSET 1 0 0
            }
          }
          JOINT rightEye
          {
            OFFSET -3.6576 8.04674 8.04672
            CHANNELS 3 Zrotation Xrotation Yrotation
            End Site
            {
              OFFSET 1 0 0
            }
          }
        }
      }
      JOINT rCollar
      {
        OFFSET -2.68224 19.2634 -4.8768
        CHANNELS 3 Zrotation Xrotation Yrotation
        JOINT rShldr
        {
          OFFSET -8.77824 -1.95073 1.46304
          CHANNELS 3 Zrotation Xrotation Yrotation
          JOINT rForeArm
          {
            OFFSET -28.1742 -1.7115 0.48768
            CHANNELS 3 Zrotation Xrotation Yrotation
            JOINT rHand
            {
              OFFSET -22.5879 0.773209 7.07136
              CHANNELS 3 Zrotation Xrotation Yrotation
              JOINT rThumb1
              {
                OFFSET -1.2192 -0.487915 3.41376
                CHANNELS 3 Zrotation Xrotation Yrotation
                JOINT rThumb2
                {
                  OFFSET -3.37035 -0.52449 3.41376
                  CHANNELS 3 Zrotation Xrotation Yrotation
                  End Site
                  {
                    OFFSET -1.78271 -1.18214 1.43049
                  }
                }
              }
              JOINT rIndex1
              {
                OFFSET -7.75947 0.938293 5.60832
                CHANNELS 3 Zrotation Xrotation Yrotation
                JOINT rIndex2
                {
                  OFFSET -2.54057 -0.884171 1.56538
                  CHANNELS 3 Zrotation Xrotation Yrotation
                  End Site
                  {
                    OFFSET -1.62519 -0.234802 1.16502
                  }
                }
              }
              JOINT rMid1
              {
                OFFSET -8.24714 1.18213 3.41376
                CHANNELS 3 Zrotation Xrotation Yrotation
                JOINT rMid2
                {
                  OFFSET -3.10165 -0.590103 1.0647
                  CHANNELS 3 Zrotation Xrotation Yrotation
                  End Site
                  {
                    OFFSET -2.48547 -0.328903 0.83742
                  }
                }
              }
              JOINT rRing1
              {
                OFFSET -8.82822 0.546677 1.51678
                CHANNELS 3 Zrotation Xrotation Yrotation
                JOINT rRing2
                {
                  OFFSET -2.60934 -0.819778 -0.0198488
                  CHANNELS 3 Zrotation Xrotation Yrotation
                  End Site
                  {
                    OFFSET -2.33842 -0.294052 0.168128
                  }
                }
              }
              JOINT rPinky1
              {
                OFFSET -8.27202 -0.0477905 -0.4584
                CHANNELS 3 Zrotation Xrotation Yrotation
                JOINT rPinky2
                {
                  OFFSET -1.82734 -0.647385 -0.700984
                  CHANNELS 3 Zrotation Xrotation Yrotation
                  End Site
                  {
                    OFFSET -1.69225 -0.51767 -0.607171
                  }
                }
              }
            }
          }
        }
      }
      JOINT lCollar
      {
        OFFSET 2.68224 19.2634 -4.8768
        CHANNELS 3 Zrotation Xrotation Yrotation
        JOINT lShldr
        {
          OFFSET 8.77824 -1.95073 1.46304
          CHANNELS 3 Zrotation Xrotation Yrotation
          JOINT lForeArm
          {
            OFFSET 28.1742 -1.7115 0.48768
            CHANNELS 3 Zrotation Xrotation Yrotation
            JOINT lHand
            {
              OFFSET 22.5879 0.773209 7.07136
              CHANNELS 3 Zrotation Xrotation Yrotation
              JOINT lThumb1
              {
                OFFSET 1.2192 -0.487915 3.41376
                CHANNELS 3 Zrotation Xrotation Yrotation
                JOINT lThumb2
                {
                  OFFSET 3.37035 -0.52449 3.41376
                  CHANNELS 3 Zrotation Xrotation Yrotation
                  End Site
                  {
                    OFFSET 1.78271 -1.18214 1.43049
                  }
                }
              }
              JOINT lIndex1
              {
                OFFSET 7.75947 0.938293 5.60832
                CHANNELS 3 Zrotation Xrotation Yrotation
                JOINT lIndex2
                {
                  OFFSET 2.54057 -0.884171 1.56538
                  CHANNELS 3 Zrotation Xrotation Yrotation
                  End Site
                  {
                    OFFSET 1.62519 -0.234802 1.16502
                  }
                }
              }
              JOINT lMid1
              {
                OFFSET 8.24714 1.18213 3.41376
                CHANNELS 3 Zrotation Xrotation Yrotation
                JOINT lMid2
                {
                  OFFSET 3.10165 -0.590103 1.0647
                  CHANNELS 3 Zrotation Xrotation Yrotation
                  End Site
                  {
                    OFFSET 2.48547 -0.328903 0.83742
                  }
                }
              }
              JOINT lRing1
              {
                OFFSET 8.82822 0.546677 1.51678
                CHANNELS 3 Zrotation Xrotation Yrotation
                JOINT lRing2
                {
                  OFFSET 2.60934 -0.819778 -0.0198488
                  CHANNELS 3 Zrotation Xrotation Yrotation
                  End Site
                  {
                    OFFSET 2.33842 -0.294052 0.168128
                  }
                }
              }
              JOINT lPinky1
              {
                OFFSET 8.27202 -0.0477905 -0.4584
                CHANNELS 3 Zrotation Xrotation Yrotation
                JOINT lPinky2
                {
                  OFFSET 1.82734 -0.647385 -0.700984
                  CHANNELS 3 Zrotation Xrotation Yrotation
                  End Site
                  {
                    OFFSET 1.69225 -0.51767 -0.607171
                  }
                }
              }
            }
          }
        }
      }
    }
  }
  JOINT rButtock
  {
    OFFSET -8.77824 4.35084 1.2192
    CHANNELS 3 Zrotation Xrotation Yrotation
    JOINT rThigh
    {
      OFFSET 0 -1.70687 -2.19456
      CHANNELS 3 Zrotation Xrotation Yrotation
      JOINT rShin
      {
        OFFSET 0 -36.8199 0.73152
        CHANNELS 3 Zrotation Xrotation Yrotation
        JOINT rFoot
        {
          OFFSET 0.73152 -45.1104 -5.12064
          CHANNELS 3 Zrotation Xrotation Yrotation
          End Site
          {
            OFFSET -1.1221 -3.69964 12.103
          }
        }
      }
    }
  }
  JOINT lButtock
  {
    OFFSET 8.77824 4.35084 1.2192
    CHANNELS 3 Zrotation Xrotation Yrotation
    JOINT lThigh
    {
      OFFSET 0 -1.70687 -2.19456
      CHANNELS 3 Zrotation Xrotation Yrotation
      JOINT lShin
      {
        OFFSET 0 -36.8199 0.73152
        CHANNELS 3 Zrotation Xrotation Yrotation
        JOINT lFoot
        {
          OFFSET -0.73152 -45.1104 -5.12064
          CHANNELS 3 Zrotation Xrotation Yrotation
          End Site
          {
            OFFSET 1.1221 -3.69964 12.103
          }
        }
      }
    }
  }
}
MOTION
Frames:	6
Frame Time:	0.03333
188.89800000000002 56.87 -93.3057 -7.011252 7.056586 13.15631 4.779672 5.969205 141.199394 -8.160858 2.129854 -134.945447 6.026574 11.038689 102.36903 -14.980086 -1.92299 -128.059122 0.001413 -0.0 -0.000758 0.001413 -0.0 -0.000758 -155.614379 -4.236429 161.990876 -15.182914 -13.438338 -5.419492 13.966743 -1.315318 -121.394064 -166.155176 14.57586 138.808625 -166.63175 -4.304468 89.77261 -77.345312 3.303964 27.079609 -123.870564 22.788269 104.455119 -172.603607 -28.150319 116.647489 -36.035276 51.72397 29.830484 2.834385 1.673862 0.300559 -69.297875 72.946896 87.016803 -158.792749 -27.195292 179.913036 -23.391779 -36.349443 -22.49295 -128.021592 -28.870283 -126.939688 155.504075 -3.514464 -161.838726 -137.203739 70.914663 128.279255 -123.719924 4.042529 25.968509 116.419437 69.294094 -94.314231 176.598235 -14.213117 -89.69156 163.357629 -1.585155 -88.208094 -37.216066 -57.917687 0.64137 166.73514 -29.969639 -111.911238 0.570881 1.648305 -0.322955 159.236958 7.05832 -141.701155 67.608478 -72.07434 84.374098 64.726895 -82.499987 90.682833 26.503393 -38.813966 25.545074 166.742231 71.737512 147.485938 179.982222 75.749856 0.012164 165.669063 17.454181 40.422192 78.81312 44.02142 -147.221337 -88.631239 -64.163504 -1.123095 179.98565 75.749001 0.009818 -161.013465 15.549982 -0.0 -86.624 75.380929 -35.925956 57.950332 -11.020628 128.500721
188.5794 55.985600000000005 -93.4011 -7.560665 9.382268 12.147824 5.224774 10.928286 0.0 5.408698 -11.239904 3.474306 -7.078438 20.651488 -153.117596 -8.864628 29.029504 131.0051 0.00109 0.0 0.001389 0.002491 -0.0 -0.00033 -155.51586 -3.589711 161.854201 168.678453 -26.837584 -173.659595 -97.268955 -0.503128 28.734504 174.353128 -64.163522 149.592912 -2.814044 2.754145 0.498247 -141.45491 -47.326239 118.245737 60.461278 -70.523812 15.71156 20.818852 -6.99046 -6.115394 0.541884 -1.589806 -0.295061 -88.701099 64.083019 80.422932 0.001383 0.063721 0.020369 -148.223731 -76.780578 -171.088727 -146.223481 15.470463 -142.748548 10.810998 24.762385 3.785756 159.219659 -48.028404 -170.415905 -51.905276 51.134847 26.865724 -123.320202 6.063383 30.529794 109.213786 70.70215 -87.652479 166.745765 -4.417983 -89.781162 32.939244 -27.848666 -7.495474 151.354201 -17.158349 -121.132558 87.791484 56.537498 -69.285238 160.099372 -4.90063 -142.970084 -3.436972 -0.617778 -0.277541 0.000854 -0.018642 0.005099 -6.673893 31.041428 -4.967812 126.797867 -26.619608 124.512654 154.785919 37.187845 146.383399 -179.998244 75.751014 -0.0 164.731928 18.865809 4.751279 79.428611 66.097827 40.774413 -29.491503 18.003873 -125.255372 -0.005495 0.000388 -0.002747 34.80126 -56.132227 30.371928 -113.115549 76.421373 -66.419263 164.145792 -4.421426 161.526295
188.5489 55.751799999999996 -93.3005 -7.80773 9.689497 11.639001 1.606538 7.64752 108.052842 -10.01787 -5.558399 -106.713718 -15.055724 11.226357 -76.669394 20.743121 24.831704 44.926584 -0.002321 -0.0 0.001608 -0.002321 -0.0 0.001608 -158.468266 -30.055653 166.919433 3.637545 45.200671 -28.03837 114.053905 -73.968299 -0.679444 -148.352218 31.539293 128.049749 -179.145455 -16.66089 89.391935 -136.058827 13.939008 69.827215 -138.762195 4.486587 115.030904 -148.523757 14.203826 115.106736 -86.295107 60.959489 77.857256 3.62912 -0.579824 0.089124 0.005479 1.772368 0.556476 7.680689 24.087138 3.553022 -139.224706 -4.396615 -136.390093 2.728548 0.235813 -1.860402 -3.268375 -26.755818 5.242227 115.867889 21.403134 -136.602308 109.459816 0.373809 11.876147 -42.858629 -66.292543 -28.98262 4.034311 3.931854 -0.754444 8.135591 9.016554 -9.325692 138.763231 4.487498 -115.031855 15.111209 36.337427 -4.064396 82.840799 61.10987 -74.532285 169.988055 -25.758844 -144.107935 145.118811 0.185862 179.185798 -12.077375 36.619454 4.850365 145.787113 14.035764 142.362498 148.336487 13.887878 142.19274 -179.999344 75.749389 -0.000677 164.490774 19.261336 0.0 51.422818 69.532482 -19.300771 177.84259 -16.770435 56.609553 -8.1e-05 0.000253 0.000104 39.485675 -55.592404 -0.0 -93.107398 50.315796 -178.178461 -122.554631 -79.153551 157.691052
189.1694 55.9609 -93.2179 -8.66054 8.269012 10.739512 2.511925 6.2018 157.898723 -8.595787 3.043215 -155.771243 -5.815833 21.679273 -164.19751 -14.760589 28.116336 140.964138 0.000226 0.0 0.002475 0.001593 0.0 0.000311 -13.742368 42.43193 15.567931 34.092706 -2.563894 49.012156 45.005749 -48.106847 108.084451 -18.105418 -15.743124 -3.485582 -2.925673 2.86216 0.520735 2.017974 -1.781463 0.320767 15.558535 -27.950619 -5.750766 10.084184 6.634266 -0.429071 -10.976032 25.789732 7.640723 -153.982559 20.032294 138.707133 -2.5e-05 0.06366 0.020365 -156.582433 -32.213441 175.638192 8.479036 26.833999 7.453803 -140.908378 -7.919179 -137.738356 147.671617 29.084288 -152.474217 -138.583732 60.80961 152.431188 117.878089 49.388416 131.399444 -2.477165 -13.299045 0.339163 5.761512 5.576179 -1.157854 75.367331 23.169613 -70.265878 140.762028 1.380787 -116.230091 -106.909049 -70.619773 -54.483488 89.835545 60.702636 -81.262839 170.183908 -26.298412 -144.082545 145.119519 0.226644 179.199477 -11.544273 20.329213 6.650633 -0.549363 1.456242 -0.50666 159.055725 54.007701 150.023469 -179.991954 75.749476 -0.005505 166.523076 18.605489 -123.165958 -90.475948 -20.303659 -72.04775 40.69133 12.78951 145.095999 -179.995967 75.750406 -0.00276 -153.472473 11.877463 -67.59299 -97.522944 21.686753 -158.438164 -66.195009 -43.845661 -145.235578
190.2099 56.823299999999996 -93.1875 -8.904444 6.932332 9.571838 1.582741 10.759557 25.090816 1.550641 -12.277298 -23.019629 4.976442 13.862148 110.232388 -18.929946 -3.157272 -141.091267 -0.002313 0.0 -0.000158 0.003201 0.0 0.001218 -13.743189 42.431637 15.568988 -172.283229 -24.619786 119.836594 -14.173766 83.186427 88.474589 -15.733275 -48.817661 -13.195413 -0.442195 0.434993 0.069961 -130.390635 -27.512646 115.173454 60.461754 -70.523602 15.71158 -13.988519 38.057152 11.352769 -152.826822 14.792459 138.512268 -152.874606 22.090883 137.696135 -73.625109 72.973153 91.553732 5.859091 0.004447 -4.507416 -152.693394 39.284368 -147.936484 1.958341 0.366473 -1.751966 9.652097 34.836069 -11.199637 177.008592 1.993274 -133.770429 -179.444397 5.68594 83.143689 10.427297 28.523933 -1.432472 -71.830769 -48.263737 -25.792235 10.324177 -56.751136 37.440461 -37.214826 -57.918103 0.642671 -177.369044 -47.11544 -104.359158 160.67386 -6.668014 -143.244119 171.197071 -28.315118 -143.806258 145.119086 0.185472 179.18659 -12.120325 40.325246 4.413219 151.490561 34.557371 147.064037 11.314858 -25.284402 13.214345 0.000296 -0.000899 -0.000381 -21.21526 -50.691653 -16.985953 51.48139 74.940679 -136.387209 -15.862024 -80.093924 65.993571 -0.007015 -0.001063 -0.003507 48.851634 -52.192566 -180.0 101.556131 -42.878615 19.113378 175.354645 28.473822 97.563281
191.7569 58.1916 -93.2642 -9.175202 6.249973 8.48812 1.822887 5.710686 171.911633 -6.407917 4.636233 -170.94099 0.626278 4.704999 45.548919 3.458234 -15.321393 -77.448435 -0.002443 0.0 -0.004938 -0.00312 -0.0 2e-05 0.07067 -0.427826 -0.094885 62.715702 -7.192078 25.418123 170.635996 10.857737 76.482685 -124.598264 42.029515 110.88045 5.594768 -5.581078 -0.592472 6.931189 -13.004373 -9.747338 -108.427286 34.16097 91.743079 -177.281231 -32.838326 114.194092 -0.56954 1.648667 0.32151 -132.322516 49.944078 121.241656 -72.756328 -72.14313 -89.772295 -149.837174 -27.29588 -179.874162 -156.379171 53.733514 -150.122003 0.57058 -2.593897 -2.533172 -0.023063 -0.138618 0.03112 -79.465228 -43.935641 -60.636675 125.268782 77.43855 132.207815 5.585396 19.114439 -0.479654 -1.601483 -1.586015 0.224119 -4.68988 -6.967695 4.938964 163.631139 -39.087415 -122.567998 -96.491797 -70.321865 -41.305732 89.834715 60.703536 -81.263468 83.140392 64.15433 -75.307344 73.625968 72.971459 -91.554511 156.125586 -46.602184 175.904519 86.001728 -50.497717 84.370611 136.01282 -14.550585 134.087882 -0.001609 0.001044 -0.000804 -19.9338 -50.477225 180.0 -67.6002 -61.300282 26.039806 -147.616008 -78.972852 -57.292599 -179.996966 75.751393 -0.002677 -149.610059 15.048984 -8.020647 -100.546957 76.956337 11.361223 170.814737 -3.258292 -81.313591
